<svg xmlns="http://www.w3.org/2000/svg" width="250" height="81.58" viewBox="0 0 250 81.58">
  <g id="Group_1758" data-name="Group 1758" transform="translate(-150 -21)">
    <g id="logo_nötr" data-name="logo nötr" transform="translate(150 21)">
      <path id="Path_1544" data-name="Path 1544" d="M853.026,479.987a71.224,71.224,0,0,1,3.147,10.571c2.631,13.624-11.044,18.559-11.044,18.559s.773-1.008,5.429-6.074c9.05-10.029-.3-23.048.974-31.355A17.681,17.681,0,0,0,853.026,479.987Z" transform="translate(-814.699 -434.235)" fill="#0a3678" fill-rule="evenodd"/>
      <path id="Path_1545" data-name="Path 1545" d="M875.466,421.035c8.839,0,16.49,5.4,16.852,14.358.312,7.721-3.115,12.153-6.781,14.062a15.615,15.615,0,0,0,1.7-7.022c0-8.839-6.892-17.1-15.732-17.1-3.824,0-6.95.671-9.712,2.918C864.419,422.957,869.173,421.035,875.466,421.035Z" transform="translate(-822.688 -409.949)" fill="#0a3678" fill-rule="evenodd"/>
      <path id="Path_1546" data-name="Path 1546" d="M827.563,400.552a14.543,14.543,0,0,1,12.995,7.285c-3.278-1.395-4.49-1.645-7.542-1.516-7.939.337-15.2,6.527-15.2,15.366,0,3.054-.087,6.177,1.4,8.611a16.042,16.042,0,0,1,8.347-29.746Z" transform="translate(-798.582 -400.128)" fill="#0a3678" fill-rule="evenodd"/>
      <path id="Path_1547" data-name="Path 1547" d="M884.6,474.3c-2.628,5.293-7.789,10.112-14.081,10.112a14.8,14.8,0,0,1-9.833-3.518l-.4-1.894c2.684,2.019,10.9.062,14.509.062C878.624,479.059,881.839,476.544,884.6,474.3Z" transform="translate(-821.969 -435.485)" fill="#0a3678" fill-rule="evenodd"/>
      <path id="Path_1548" data-name="Path 1548" d="M817.515,476.895c-2.566,7.123-7.893,10.867-14.185,10.867-8.839,0-16.658-7.564-16.658-16.4,0-5.014,1.64-9.7,5.262-12.647a16.038,16.038,0,0,0,14.385,23.15C810.144,481.861,814.753,479.142,817.515,476.895Z" transform="translate(-786.672 -428.013)" fill="#0a3678" fill-rule="evenodd"/>
      <path id="Path_1549" data-name="Path 1549" d="M876.267,417.494a16.079,16.079,0,0,1,16.048,16.049,16.722,16.722,0,0,1-6,12.763,17.326,17.326,0,0,0,1.721-7.414,16.079,16.079,0,0,0-16.048-16.049,16.321,16.321,0,0,0-10.2,3.71A16.322,16.322,0,0,1,876.267,417.494Z" transform="translate(-822.687 -408.251)" fill="#0a3678" fill-rule="evenodd"/>
      <path id="Path_1550" data-name="Path 1550" d="M817.994,475.531a16.042,16.042,0,1,1-24.489-19.552,16.034,16.034,0,0,0,24.489,19.552Z" transform="translate(-787.099 -426.703)" fill="#0a3678" fill-rule="evenodd"/>
      <path id="Path_1551" data-name="Path 1551" d="M884.893,473.219a16.021,16.021,0,0,1-24.6,5.257l4.878-4.878a15.991,15.991,0,0,0,19.726-.379Z" transform="translate(-821.968 -434.968)" fill="#0a3678" fill-rule="evenodd"/>
      <path id="Path_1552" data-name="Path 1552" d="M826.219,399.738a16.073,16.073,0,0,1,13.7,7.708,16.018,16.018,0,0,0-22.036,22.02,16.028,16.028,0,0,1,8.339-29.728Z" transform="translate(-797.939 -399.738)" fill="#0a3678" fill-rule="evenodd"/>
      <path id="Path_1553" data-name="Path 1553" d="M813.347,437.441a16.041,16.041,0,0,1,10.345,3.338l-4.973,7.154a20.35,20.35,0,0,0-9.855-3.894c-3.806-.381-7.009-.314-9.771,1.933A15.519,15.519,0,0,1,813.347,437.441Z" transform="translate(-792.627 -417.815)" fill="#0a3678" fill-rule="evenodd"/>
      <path id="Path_1554" data-name="Path 1554" d="M813.431,436.632a15.971,15.971,0,0,1,10.219,3.69l-4.878,4.878a15.933,15.933,0,0,0-19.69.383A16.028,16.028,0,0,1,813.431,436.632Z" transform="translate(-792.622 -417.427)" fill="#0a3678" fill-rule="evenodd"/>
      <path id="Path_1555" data-name="Path 1555" d="M868.066,417.506c4.613,2.824,7.5,8.839,7.5,14.625a15.906,15.906,0,0,1-3.626,9.453l-5.641-8.321c1.748-2.569,3.756-4.359,3.756-7.69A14.715,14.715,0,0,0,868.066,417.506Z" transform="translate(-824.852 -408.257)" fill="#0a3678" fill-rule="evenodd"/>
      <path id="Path_1556" data-name="Path 1556" d="M866.825,414.56a16.024,16.024,0,0,1,4.827,22.638l-5.349-5.349a15.944,15.944,0,0,0,2.771-9A15.663,15.663,0,0,0,866.825,414.56Z" transform="translate(-824.851 -406.844)" fill="#0a3678" fill-rule="evenodd"/>
      <path id="Path_1557" data-name="Path 1557" d="M845.109,474.884c0,12.687,10.172,15.8,0,34.238l5.491-6.085c9.05-10.029-.34-23.056.929-31.363Z" transform="translate(-814.69 -434.228)" fill="#0a3678" fill-rule="evenodd"/>
      <path id="Path_1558" data-name="Path 1558" d="M904.544,504.351l-3.851,14.108-1.428,5.212-1.427,5.212h5.411l1.395-5.212h7.934l1.428,5.212h5.411l-1.428-5.212-1.427-5.212-3.851-14.108Zm1.527,14.108,2.556-9.328,2.556,9.328Zm20.679-14.108h-5.212v24.533h14.706v-5.212H926.75v-19.32Zm12.017,0v24.533h5.212V504.351Zm16.759,9.66,3.652-9.66h5.544L960.108,516.6l4.614,12.283h-5.544l-3.652-9.661H952.97v9.661h-5.179V504.351h5.179v9.66Zm-72.078-4.448a1.034,1.034,0,0,0-1.03,1.029v12.051a1.035,1.035,0,0,0,1.03,1.029h6.44a1.034,1.034,0,0,0,1.029-1.029v-1.266H896.1V525.1a3.755,3.755,0,0,1-3.751,3.785h-2.217v2.591H882.21v-2.591h-1.219a3.755,3.755,0,0,1-3.751-3.785V508.135a3.754,3.754,0,0,1,3.751-3.784h11.354a3.754,3.754,0,0,1,3.751,3.784v3.435h-5.179v-.979a1.034,1.034,0,0,0-1.029-1.029Z" transform="translate(-830.095 -449.895)" fill="#0a3678" fill-rule="evenodd"/>
      <path id="Path_1559" data-name="Path 1559" d="M1163.513,512.223v16.671h5.194V512.223Zm0-7.772v5.193h5.194v-5.193Zm-84.5,0H1062.06V528.9h16.953v-5.229h-11.728v-4.38h11.728v-5.228h-11.728v-4.379h11.728v-5.228Zm43.224,0h-16.953V528.9h16.953v-5.229H1110.51v-4.38h11.727v-5.228H1110.51v-4.379h11.727v-5.228Zm28.728,18.224v-3.389h-5.228v5.793a3.8,3.8,0,0,0,3.815,3.816h7.064a3.8,3.8,0,0,0,3.814-3.816V504.451H1155.2v18.224a.965.965,0,0,1-.986.991h-2.262a.965.965,0,0,1-.989-.991Zm-49.755-18.224h-5.229v13.136l-6.78-13.136h-6.5v24.437h5.226V513.21l8.051,15.678h5.229V504.451Zm35.517,5.262h-5.683v4.407h5.683a.974.974,0,0,0,1-1v-2.415a.971.971,0,0,0-1-1Zm-10.8-5.254h13.215a3.818,3.818,0,0,1,3.836,3.834v4.689a3.793,3.793,0,0,1-3.836,3.692,3.821,3.821,0,0,1,3.836,3.836V528.9h-5.258v-8.525a.97.97,0,0,0-1-.994h-5.683V528.9h-5.115Z" transform="translate(-918.707 -449.943)" fill="#0a3678" fill-rule="evenodd"/>
    </g>
  </g>
</svg>
